# xmcd
#
# Track frame offsets: 
#        300
#        19355
#        37062
#        54225
#        66584
#        82084
#        100843
#        124834
#        139663
#        155857
#
# Disc length: 2283 seconds
#
# Revision: 4
# Processed by: cddbd v1.5.2PL0 Copyright (c) Steve Scherf et al.
# Submitted via: ExactAudioCopy v0.99pb5
#
DISCID=9408e70a
DTITLE=Bonnie Raitt - Sweet Forgiveness
DYEAR=1977
DGENRE=Blues Rock
TTITLE0=About To Make Me Leave Home
TTITLE1=Runaway
TTITLE2=Two Lives
TTITLE3=Louise
TTITLE4=Gamblin' Man
TTITLE5=Sweet Forgiveness
TTITLE6=My Opening Farewell
TTITLE7=Three Time Loser
TTITLE8=Takin' My Time
TTITLE9=Home
EXTD=
EXTT0=
EXTT1=
EXTT2=
EXTT3=
EXTT4=
EXTT5=
EXTT6=
EXTT7=
EXTT8=
EXTT9=
PLAYORDER=
